G04 EAGLE Gerber RS-274X export*
G75*
%MOMM*%
%FSLAX34Y34*%
%LPD*%
%INSoldermask Bottom*%
%IPPOS*%
%AMOC8*
5,1,8,0,0,1.08239X$1,22.5*%
G01*
%ADD10C,2.603200*%
%ADD11C,7.203200*%
%ADD12C,1.711200*%
%ADD13C,3.803200*%
%ADD14R,5.819200X5.819200*%
%ADD15P,6.298644X8X112.500000*%
%ADD16C,0.959600*%


D10*
X857250Y419100D03*
X912250Y419100D03*
X802250Y419100D03*
D11*
X857250Y609600D03*
D10*
X641350Y419100D03*
X696350Y419100D03*
X586350Y419100D03*
D11*
X641350Y609600D03*
D10*
X425450Y419100D03*
X480450Y419100D03*
X370450Y419100D03*
D11*
X425450Y609600D03*
D10*
X209550Y419100D03*
X264550Y419100D03*
X154550Y419100D03*
D11*
X209550Y609600D03*
D10*
X857250Y266700D03*
X802250Y266700D03*
X912250Y266700D03*
D11*
X857250Y76200D03*
D10*
X641350Y266700D03*
X586350Y266700D03*
X696350Y266700D03*
D11*
X641350Y76200D03*
D10*
X425450Y266700D03*
X370450Y266700D03*
X480450Y266700D03*
D11*
X425450Y76200D03*
D10*
X209550Y266700D03*
X154550Y266700D03*
X264550Y266700D03*
D11*
X209550Y76200D03*
D12*
X1079500Y533400D03*
X1104900Y533400D03*
X1079500Y508000D03*
X1104900Y508000D03*
X1079500Y482600D03*
X1104900Y482600D03*
X1079500Y457200D03*
X1104900Y457200D03*
X1079500Y431800D03*
X1104900Y431800D03*
X1079500Y406400D03*
X1104900Y406400D03*
X1079500Y381000D03*
X1104900Y381000D03*
X1079500Y355600D03*
X1104900Y355600D03*
X1079500Y330200D03*
X1104900Y330200D03*
X1079500Y304800D03*
X1104900Y304800D03*
X1079500Y279400D03*
X1104900Y279400D03*
X1079500Y254000D03*
X1104900Y254000D03*
D13*
X50800Y635000D03*
X50800Y50800D03*
X1092200Y50800D03*
X1092200Y635000D03*
D14*
X85725Y424425D03*
D15*
X85725Y352425D03*
D10*
X25725Y320425D03*
X25725Y456425D03*
D16*
X927100Y79375D03*
X908050Y60325D03*
X82550Y101600D03*
X161925Y22225D03*
X996950Y88900D03*
X1009650Y120650D03*
X1038225Y444500D03*
X917575Y387350D03*
X768350Y193675D03*
X946150Y574675D03*
X958850Y523875D03*
X742950Y523875D03*
X527050Y523875D03*
X311150Y523875D03*
X755650Y161925D03*
X539750Y161925D03*
X323850Y161925D03*
X107950Y161925D03*
X904875Y177800D03*
X1000125Y504825D03*
X958850Y587375D03*
X742950Y587375D03*
X527050Y587375D03*
X311150Y587375D03*
X755650Y98425D03*
X539750Y98425D03*
X323850Y98425D03*
X107950Y98425D03*
X968375Y69850D03*
X1009650Y587375D03*
X968375Y165100D03*
X552450Y193675D03*
X336550Y193675D03*
X120650Y193675D03*
X946150Y492125D03*
X730250Y492125D03*
X514350Y492125D03*
X298450Y492125D03*
X730250Y574675D03*
X514350Y574675D03*
X298450Y574675D03*
X768350Y111125D03*
X552450Y111125D03*
X336550Y111125D03*
X120650Y111125D03*
X1035050Y111125D03*
X1035050Y292100D03*
X1012825Y292100D03*
X1009650Y41275D03*
X1022350Y101600D03*
X184150Y660400D03*
M02*
