G04 EAGLE Gerber RS-274X export*
G75*
%MOMM*%
%FSLAX34Y34*%
%LPD*%
%INSoldermask Top*%
%IPPOS*%
%AMOC8*
5,1,8,0,0,1.08239X$1,22.5*%
G01*
%ADD10R,1.703200X1.503200*%
%ADD11R,1.003200X1.003200*%
%ADD12R,1.503200X1.703200*%
%ADD13R,3.403200X2.003200*%
%ADD14C,2.603200*%
%ADD15C,7.203200*%
%ADD16C,0.353406*%
%ADD17C,0.349006*%
%ADD18C,1.711200*%
%ADD19C,3.803200*%
%ADD20R,5.819200X5.819200*%
%ADD21P,6.298644X8X112.500000*%
%ADD22C,0.959600*%


D10*
X911225Y536600D03*
X911225Y555600D03*
X939800Y120625D03*
X939800Y101625D03*
X695325Y536600D03*
X695325Y555600D03*
X479425Y536600D03*
X479425Y555600D03*
X263525Y536600D03*
X263525Y555600D03*
X803275Y149200D03*
X803275Y130200D03*
X587375Y149200D03*
X587375Y130200D03*
X371475Y149200D03*
X371475Y130200D03*
X155575Y149200D03*
X155575Y130200D03*
X939800Y60300D03*
X939800Y41300D03*
D11*
X920750Y602100D03*
X920750Y617100D03*
X704850Y602100D03*
X704850Y617100D03*
X488950Y602100D03*
X488950Y617100D03*
X273050Y602100D03*
X273050Y617100D03*
X793750Y83700D03*
X793750Y68700D03*
X577850Y83700D03*
X577850Y68700D03*
X361950Y83700D03*
X361950Y68700D03*
X146050Y83700D03*
X146050Y68700D03*
D12*
X885800Y508000D03*
X866800Y508000D03*
D13*
X742950Y403800D03*
X742950Y459800D03*
X527050Y403800D03*
X527050Y459800D03*
X311150Y403800D03*
X311150Y459800D03*
D12*
X831875Y177800D03*
X850875Y177800D03*
X615975Y177800D03*
X634975Y177800D03*
X403250Y177800D03*
X422250Y177800D03*
X184175Y177800D03*
X203175Y177800D03*
D10*
X774700Y73050D03*
X774700Y92050D03*
X558800Y73050D03*
X558800Y92050D03*
X342900Y73050D03*
X342900Y92050D03*
D12*
X669900Y508000D03*
X650900Y508000D03*
D10*
X127000Y73050D03*
X127000Y92050D03*
D13*
X755650Y282000D03*
X755650Y226000D03*
X539750Y282000D03*
X539750Y226000D03*
X323850Y282000D03*
X323850Y226000D03*
X107950Y282000D03*
X107950Y226000D03*
D12*
X981100Y146050D03*
X1000100Y146050D03*
X939825Y146050D03*
X958825Y146050D03*
D10*
X1035050Y330175D03*
X1035050Y311175D03*
X1012825Y330175D03*
X1012825Y311175D03*
X98425Y488975D03*
X98425Y507975D03*
D12*
X454000Y508000D03*
X435000Y508000D03*
D10*
X57150Y507975D03*
X57150Y488975D03*
D12*
X238100Y508000D03*
X219100Y508000D03*
D10*
X939800Y612750D03*
X939800Y593750D03*
X723900Y612750D03*
X723900Y593750D03*
X508000Y612750D03*
X508000Y593750D03*
X292100Y612750D03*
X292100Y593750D03*
D13*
X958850Y403800D03*
X958850Y459800D03*
D14*
X857250Y419100D03*
X912250Y419100D03*
X802250Y419100D03*
D15*
X857250Y609600D03*
D14*
X641350Y419100D03*
X696350Y419100D03*
X586350Y419100D03*
D15*
X641350Y609600D03*
D14*
X425450Y419100D03*
X480450Y419100D03*
X370450Y419100D03*
D15*
X425450Y609600D03*
D14*
X209550Y419100D03*
X264550Y419100D03*
X154550Y419100D03*
D15*
X209550Y609600D03*
D14*
X857250Y266700D03*
X802250Y266700D03*
X912250Y266700D03*
D15*
X857250Y76200D03*
D14*
X641350Y266700D03*
X586350Y266700D03*
X696350Y266700D03*
D15*
X641350Y76200D03*
D14*
X425450Y266700D03*
X370450Y266700D03*
X480450Y266700D03*
D15*
X425450Y76200D03*
D14*
X209550Y266700D03*
X154550Y266700D03*
X264550Y266700D03*
D15*
X209550Y76200D03*
D16*
X935699Y499601D02*
X935699Y517799D01*
X935699Y499601D02*
X931201Y499601D01*
X931201Y517799D01*
X935699Y517799D01*
X935699Y502958D02*
X931201Y502958D01*
X931201Y506315D02*
X935699Y506315D01*
X935699Y509672D02*
X931201Y509672D01*
X931201Y513029D02*
X935699Y513029D01*
X935699Y516386D02*
X931201Y516386D01*
X948399Y517799D02*
X948399Y499601D01*
X943901Y499601D01*
X943901Y517799D01*
X948399Y517799D01*
X948399Y502958D02*
X943901Y502958D01*
X943901Y506315D02*
X948399Y506315D01*
X948399Y509672D02*
X943901Y509672D01*
X943901Y513029D02*
X948399Y513029D01*
X948399Y516386D02*
X943901Y516386D01*
X961099Y517799D02*
X961099Y499601D01*
X956601Y499601D01*
X956601Y517799D01*
X961099Y517799D01*
X961099Y502958D02*
X956601Y502958D01*
X956601Y506315D02*
X961099Y506315D01*
X961099Y509672D02*
X956601Y509672D01*
X956601Y513029D02*
X961099Y513029D01*
X961099Y516386D02*
X956601Y516386D01*
X973799Y517799D02*
X973799Y499601D01*
X969301Y499601D01*
X969301Y517799D01*
X973799Y517799D01*
X973799Y502958D02*
X969301Y502958D01*
X969301Y506315D02*
X973799Y506315D01*
X973799Y509672D02*
X969301Y509672D01*
X969301Y513029D02*
X973799Y513029D01*
X973799Y516386D02*
X969301Y516386D01*
X973799Y549001D02*
X973799Y567199D01*
X973799Y549001D02*
X969301Y549001D01*
X969301Y567199D01*
X973799Y567199D01*
X973799Y552358D02*
X969301Y552358D01*
X969301Y555715D02*
X973799Y555715D01*
X973799Y559072D02*
X969301Y559072D01*
X969301Y562429D02*
X973799Y562429D01*
X973799Y565786D02*
X969301Y565786D01*
X961099Y567199D02*
X961099Y549001D01*
X956601Y549001D01*
X956601Y567199D01*
X961099Y567199D01*
X961099Y552358D02*
X956601Y552358D01*
X956601Y555715D02*
X961099Y555715D01*
X961099Y559072D02*
X956601Y559072D01*
X956601Y562429D02*
X961099Y562429D01*
X961099Y565786D02*
X956601Y565786D01*
X948399Y567199D02*
X948399Y549001D01*
X943901Y549001D01*
X943901Y567199D01*
X948399Y567199D01*
X948399Y552358D02*
X943901Y552358D01*
X943901Y555715D02*
X948399Y555715D01*
X948399Y559072D02*
X943901Y559072D01*
X943901Y562429D02*
X948399Y562429D01*
X948399Y565786D02*
X943901Y565786D01*
X935699Y567199D02*
X935699Y549001D01*
X931201Y549001D01*
X931201Y567199D01*
X935699Y567199D01*
X935699Y552358D02*
X931201Y552358D01*
X931201Y555715D02*
X935699Y555715D01*
X935699Y559072D02*
X931201Y559072D01*
X931201Y562429D02*
X935699Y562429D01*
X935699Y565786D02*
X931201Y565786D01*
D17*
X962304Y118404D02*
X976946Y118404D01*
X962304Y118404D02*
X962304Y122846D01*
X976946Y122846D01*
X976946Y118404D01*
X976946Y121719D02*
X962304Y121719D01*
X962304Y108904D02*
X976946Y108904D01*
X962304Y108904D02*
X962304Y113346D01*
X976946Y113346D01*
X976946Y108904D01*
X976946Y112219D02*
X962304Y112219D01*
X962304Y99404D02*
X976946Y99404D01*
X962304Y99404D02*
X962304Y103846D01*
X976946Y103846D01*
X976946Y99404D01*
X976946Y102719D02*
X962304Y102719D01*
X985204Y103846D02*
X999846Y103846D01*
X999846Y99404D01*
X985204Y99404D01*
X985204Y103846D01*
X985204Y102719D02*
X999846Y102719D01*
X999846Y113346D02*
X985204Y113346D01*
X999846Y113346D02*
X999846Y108904D01*
X985204Y108904D01*
X985204Y113346D01*
X985204Y112219D02*
X999846Y112219D01*
X999846Y122846D02*
X985204Y122846D01*
X999846Y122846D02*
X999846Y118404D01*
X985204Y118404D01*
X985204Y122846D01*
X985204Y121719D02*
X999846Y121719D01*
D16*
X719799Y499601D02*
X719799Y517799D01*
X719799Y499601D02*
X715301Y499601D01*
X715301Y517799D01*
X719799Y517799D01*
X719799Y502958D02*
X715301Y502958D01*
X715301Y506315D02*
X719799Y506315D01*
X719799Y509672D02*
X715301Y509672D01*
X715301Y513029D02*
X719799Y513029D01*
X719799Y516386D02*
X715301Y516386D01*
X732499Y517799D02*
X732499Y499601D01*
X728001Y499601D01*
X728001Y517799D01*
X732499Y517799D01*
X732499Y502958D02*
X728001Y502958D01*
X728001Y506315D02*
X732499Y506315D01*
X732499Y509672D02*
X728001Y509672D01*
X728001Y513029D02*
X732499Y513029D01*
X732499Y516386D02*
X728001Y516386D01*
X745199Y517799D02*
X745199Y499601D01*
X740701Y499601D01*
X740701Y517799D01*
X745199Y517799D01*
X745199Y502958D02*
X740701Y502958D01*
X740701Y506315D02*
X745199Y506315D01*
X745199Y509672D02*
X740701Y509672D01*
X740701Y513029D02*
X745199Y513029D01*
X745199Y516386D02*
X740701Y516386D01*
X757899Y517799D02*
X757899Y499601D01*
X753401Y499601D01*
X753401Y517799D01*
X757899Y517799D01*
X757899Y502958D02*
X753401Y502958D01*
X753401Y506315D02*
X757899Y506315D01*
X757899Y509672D02*
X753401Y509672D01*
X753401Y513029D02*
X757899Y513029D01*
X757899Y516386D02*
X753401Y516386D01*
X757899Y549001D02*
X757899Y567199D01*
X757899Y549001D02*
X753401Y549001D01*
X753401Y567199D01*
X757899Y567199D01*
X757899Y552358D02*
X753401Y552358D01*
X753401Y555715D02*
X757899Y555715D01*
X757899Y559072D02*
X753401Y559072D01*
X753401Y562429D02*
X757899Y562429D01*
X757899Y565786D02*
X753401Y565786D01*
X745199Y567199D02*
X745199Y549001D01*
X740701Y549001D01*
X740701Y567199D01*
X745199Y567199D01*
X745199Y552358D02*
X740701Y552358D01*
X740701Y555715D02*
X745199Y555715D01*
X745199Y559072D02*
X740701Y559072D01*
X740701Y562429D02*
X745199Y562429D01*
X745199Y565786D02*
X740701Y565786D01*
X732499Y567199D02*
X732499Y549001D01*
X728001Y549001D01*
X728001Y567199D01*
X732499Y567199D01*
X732499Y552358D02*
X728001Y552358D01*
X728001Y555715D02*
X732499Y555715D01*
X732499Y559072D02*
X728001Y559072D01*
X728001Y562429D02*
X732499Y562429D01*
X732499Y565786D02*
X728001Y565786D01*
X719799Y567199D02*
X719799Y549001D01*
X715301Y549001D01*
X715301Y567199D01*
X719799Y567199D01*
X719799Y552358D02*
X715301Y552358D01*
X715301Y555715D02*
X719799Y555715D01*
X719799Y559072D02*
X715301Y559072D01*
X715301Y562429D02*
X719799Y562429D01*
X719799Y565786D02*
X715301Y565786D01*
X503899Y517799D02*
X503899Y499601D01*
X499401Y499601D01*
X499401Y517799D01*
X503899Y517799D01*
X503899Y502958D02*
X499401Y502958D01*
X499401Y506315D02*
X503899Y506315D01*
X503899Y509672D02*
X499401Y509672D01*
X499401Y513029D02*
X503899Y513029D01*
X503899Y516386D02*
X499401Y516386D01*
X516599Y517799D02*
X516599Y499601D01*
X512101Y499601D01*
X512101Y517799D01*
X516599Y517799D01*
X516599Y502958D02*
X512101Y502958D01*
X512101Y506315D02*
X516599Y506315D01*
X516599Y509672D02*
X512101Y509672D01*
X512101Y513029D02*
X516599Y513029D01*
X516599Y516386D02*
X512101Y516386D01*
X529299Y517799D02*
X529299Y499601D01*
X524801Y499601D01*
X524801Y517799D01*
X529299Y517799D01*
X529299Y502958D02*
X524801Y502958D01*
X524801Y506315D02*
X529299Y506315D01*
X529299Y509672D02*
X524801Y509672D01*
X524801Y513029D02*
X529299Y513029D01*
X529299Y516386D02*
X524801Y516386D01*
X541999Y517799D02*
X541999Y499601D01*
X537501Y499601D01*
X537501Y517799D01*
X541999Y517799D01*
X541999Y502958D02*
X537501Y502958D01*
X537501Y506315D02*
X541999Y506315D01*
X541999Y509672D02*
X537501Y509672D01*
X537501Y513029D02*
X541999Y513029D01*
X541999Y516386D02*
X537501Y516386D01*
X541999Y549001D02*
X541999Y567199D01*
X541999Y549001D02*
X537501Y549001D01*
X537501Y567199D01*
X541999Y567199D01*
X541999Y552358D02*
X537501Y552358D01*
X537501Y555715D02*
X541999Y555715D01*
X541999Y559072D02*
X537501Y559072D01*
X537501Y562429D02*
X541999Y562429D01*
X541999Y565786D02*
X537501Y565786D01*
X529299Y567199D02*
X529299Y549001D01*
X524801Y549001D01*
X524801Y567199D01*
X529299Y567199D01*
X529299Y552358D02*
X524801Y552358D01*
X524801Y555715D02*
X529299Y555715D01*
X529299Y559072D02*
X524801Y559072D01*
X524801Y562429D02*
X529299Y562429D01*
X529299Y565786D02*
X524801Y565786D01*
X516599Y567199D02*
X516599Y549001D01*
X512101Y549001D01*
X512101Y567199D01*
X516599Y567199D01*
X516599Y552358D02*
X512101Y552358D01*
X512101Y555715D02*
X516599Y555715D01*
X516599Y559072D02*
X512101Y559072D01*
X512101Y562429D02*
X516599Y562429D01*
X516599Y565786D02*
X512101Y565786D01*
X503899Y567199D02*
X503899Y549001D01*
X499401Y549001D01*
X499401Y567199D01*
X503899Y567199D01*
X503899Y552358D02*
X499401Y552358D01*
X499401Y555715D02*
X503899Y555715D01*
X503899Y559072D02*
X499401Y559072D01*
X499401Y562429D02*
X503899Y562429D01*
X503899Y565786D02*
X499401Y565786D01*
X287999Y517799D02*
X287999Y499601D01*
X283501Y499601D01*
X283501Y517799D01*
X287999Y517799D01*
X287999Y502958D02*
X283501Y502958D01*
X283501Y506315D02*
X287999Y506315D01*
X287999Y509672D02*
X283501Y509672D01*
X283501Y513029D02*
X287999Y513029D01*
X287999Y516386D02*
X283501Y516386D01*
X300699Y517799D02*
X300699Y499601D01*
X296201Y499601D01*
X296201Y517799D01*
X300699Y517799D01*
X300699Y502958D02*
X296201Y502958D01*
X296201Y506315D02*
X300699Y506315D01*
X300699Y509672D02*
X296201Y509672D01*
X296201Y513029D02*
X300699Y513029D01*
X300699Y516386D02*
X296201Y516386D01*
X313399Y517799D02*
X313399Y499601D01*
X308901Y499601D01*
X308901Y517799D01*
X313399Y517799D01*
X313399Y502958D02*
X308901Y502958D01*
X308901Y506315D02*
X313399Y506315D01*
X313399Y509672D02*
X308901Y509672D01*
X308901Y513029D02*
X313399Y513029D01*
X313399Y516386D02*
X308901Y516386D01*
X326099Y517799D02*
X326099Y499601D01*
X321601Y499601D01*
X321601Y517799D01*
X326099Y517799D01*
X326099Y502958D02*
X321601Y502958D01*
X321601Y506315D02*
X326099Y506315D01*
X326099Y509672D02*
X321601Y509672D01*
X321601Y513029D02*
X326099Y513029D01*
X326099Y516386D02*
X321601Y516386D01*
X326099Y549001D02*
X326099Y567199D01*
X326099Y549001D02*
X321601Y549001D01*
X321601Y567199D01*
X326099Y567199D01*
X326099Y552358D02*
X321601Y552358D01*
X321601Y555715D02*
X326099Y555715D01*
X326099Y559072D02*
X321601Y559072D01*
X321601Y562429D02*
X326099Y562429D01*
X326099Y565786D02*
X321601Y565786D01*
X313399Y567199D02*
X313399Y549001D01*
X308901Y549001D01*
X308901Y567199D01*
X313399Y567199D01*
X313399Y552358D02*
X308901Y552358D01*
X308901Y555715D02*
X313399Y555715D01*
X313399Y559072D02*
X308901Y559072D01*
X308901Y562429D02*
X313399Y562429D01*
X313399Y565786D02*
X308901Y565786D01*
X300699Y567199D02*
X300699Y549001D01*
X296201Y549001D01*
X296201Y567199D01*
X300699Y567199D01*
X300699Y552358D02*
X296201Y552358D01*
X296201Y555715D02*
X300699Y555715D01*
X300699Y559072D02*
X296201Y559072D01*
X296201Y562429D02*
X300699Y562429D01*
X300699Y565786D02*
X296201Y565786D01*
X287999Y567199D02*
X287999Y549001D01*
X283501Y549001D01*
X283501Y567199D01*
X287999Y567199D01*
X287999Y552358D02*
X283501Y552358D01*
X283501Y555715D02*
X287999Y555715D01*
X287999Y559072D02*
X283501Y559072D01*
X283501Y562429D02*
X287999Y562429D01*
X287999Y565786D02*
X283501Y565786D01*
X778801Y186199D02*
X778801Y168001D01*
X778801Y186199D02*
X783299Y186199D01*
X783299Y168001D01*
X778801Y168001D01*
X778801Y171358D02*
X783299Y171358D01*
X783299Y174715D02*
X778801Y174715D01*
X778801Y178072D02*
X783299Y178072D01*
X783299Y181429D02*
X778801Y181429D01*
X778801Y184786D02*
X783299Y184786D01*
X766101Y186199D02*
X766101Y168001D01*
X766101Y186199D02*
X770599Y186199D01*
X770599Y168001D01*
X766101Y168001D01*
X766101Y171358D02*
X770599Y171358D01*
X770599Y174715D02*
X766101Y174715D01*
X766101Y178072D02*
X770599Y178072D01*
X770599Y181429D02*
X766101Y181429D01*
X766101Y184786D02*
X770599Y184786D01*
X753401Y186199D02*
X753401Y168001D01*
X753401Y186199D02*
X757899Y186199D01*
X757899Y168001D01*
X753401Y168001D01*
X753401Y171358D02*
X757899Y171358D01*
X757899Y174715D02*
X753401Y174715D01*
X753401Y178072D02*
X757899Y178072D01*
X757899Y181429D02*
X753401Y181429D01*
X753401Y184786D02*
X757899Y184786D01*
X740701Y186199D02*
X740701Y168001D01*
X740701Y186199D02*
X745199Y186199D01*
X745199Y168001D01*
X740701Y168001D01*
X740701Y171358D02*
X745199Y171358D01*
X745199Y174715D02*
X740701Y174715D01*
X740701Y178072D02*
X745199Y178072D01*
X745199Y181429D02*
X740701Y181429D01*
X740701Y184786D02*
X745199Y184786D01*
X740701Y136799D02*
X740701Y118601D01*
X740701Y136799D02*
X745199Y136799D01*
X745199Y118601D01*
X740701Y118601D01*
X740701Y121958D02*
X745199Y121958D01*
X745199Y125315D02*
X740701Y125315D01*
X740701Y128672D02*
X745199Y128672D01*
X745199Y132029D02*
X740701Y132029D01*
X740701Y135386D02*
X745199Y135386D01*
X753401Y136799D02*
X753401Y118601D01*
X753401Y136799D02*
X757899Y136799D01*
X757899Y118601D01*
X753401Y118601D01*
X753401Y121958D02*
X757899Y121958D01*
X757899Y125315D02*
X753401Y125315D01*
X753401Y128672D02*
X757899Y128672D01*
X757899Y132029D02*
X753401Y132029D01*
X753401Y135386D02*
X757899Y135386D01*
X766101Y136799D02*
X766101Y118601D01*
X766101Y136799D02*
X770599Y136799D01*
X770599Y118601D01*
X766101Y118601D01*
X766101Y121958D02*
X770599Y121958D01*
X770599Y125315D02*
X766101Y125315D01*
X766101Y128672D02*
X770599Y128672D01*
X770599Y132029D02*
X766101Y132029D01*
X766101Y135386D02*
X770599Y135386D01*
X778801Y136799D02*
X778801Y118601D01*
X778801Y136799D02*
X783299Y136799D01*
X783299Y118601D01*
X778801Y118601D01*
X778801Y121958D02*
X783299Y121958D01*
X783299Y125315D02*
X778801Y125315D01*
X778801Y128672D02*
X783299Y128672D01*
X783299Y132029D02*
X778801Y132029D01*
X778801Y135386D02*
X783299Y135386D01*
X562901Y168001D02*
X562901Y186199D01*
X567399Y186199D01*
X567399Y168001D01*
X562901Y168001D01*
X562901Y171358D02*
X567399Y171358D01*
X567399Y174715D02*
X562901Y174715D01*
X562901Y178072D02*
X567399Y178072D01*
X567399Y181429D02*
X562901Y181429D01*
X562901Y184786D02*
X567399Y184786D01*
X550201Y186199D02*
X550201Y168001D01*
X550201Y186199D02*
X554699Y186199D01*
X554699Y168001D01*
X550201Y168001D01*
X550201Y171358D02*
X554699Y171358D01*
X554699Y174715D02*
X550201Y174715D01*
X550201Y178072D02*
X554699Y178072D01*
X554699Y181429D02*
X550201Y181429D01*
X550201Y184786D02*
X554699Y184786D01*
X537501Y186199D02*
X537501Y168001D01*
X537501Y186199D02*
X541999Y186199D01*
X541999Y168001D01*
X537501Y168001D01*
X537501Y171358D02*
X541999Y171358D01*
X541999Y174715D02*
X537501Y174715D01*
X537501Y178072D02*
X541999Y178072D01*
X541999Y181429D02*
X537501Y181429D01*
X537501Y184786D02*
X541999Y184786D01*
X524801Y186199D02*
X524801Y168001D01*
X524801Y186199D02*
X529299Y186199D01*
X529299Y168001D01*
X524801Y168001D01*
X524801Y171358D02*
X529299Y171358D01*
X529299Y174715D02*
X524801Y174715D01*
X524801Y178072D02*
X529299Y178072D01*
X529299Y181429D02*
X524801Y181429D01*
X524801Y184786D02*
X529299Y184786D01*
X524801Y136799D02*
X524801Y118601D01*
X524801Y136799D02*
X529299Y136799D01*
X529299Y118601D01*
X524801Y118601D01*
X524801Y121958D02*
X529299Y121958D01*
X529299Y125315D02*
X524801Y125315D01*
X524801Y128672D02*
X529299Y128672D01*
X529299Y132029D02*
X524801Y132029D01*
X524801Y135386D02*
X529299Y135386D01*
X537501Y136799D02*
X537501Y118601D01*
X537501Y136799D02*
X541999Y136799D01*
X541999Y118601D01*
X537501Y118601D01*
X537501Y121958D02*
X541999Y121958D01*
X541999Y125315D02*
X537501Y125315D01*
X537501Y128672D02*
X541999Y128672D01*
X541999Y132029D02*
X537501Y132029D01*
X537501Y135386D02*
X541999Y135386D01*
X550201Y136799D02*
X550201Y118601D01*
X550201Y136799D02*
X554699Y136799D01*
X554699Y118601D01*
X550201Y118601D01*
X550201Y121958D02*
X554699Y121958D01*
X554699Y125315D02*
X550201Y125315D01*
X550201Y128672D02*
X554699Y128672D01*
X554699Y132029D02*
X550201Y132029D01*
X550201Y135386D02*
X554699Y135386D01*
X562901Y136799D02*
X562901Y118601D01*
X562901Y136799D02*
X567399Y136799D01*
X567399Y118601D01*
X562901Y118601D01*
X562901Y121958D02*
X567399Y121958D01*
X567399Y125315D02*
X562901Y125315D01*
X562901Y128672D02*
X567399Y128672D01*
X567399Y132029D02*
X562901Y132029D01*
X562901Y135386D02*
X567399Y135386D01*
X347001Y168001D02*
X347001Y186199D01*
X351499Y186199D01*
X351499Y168001D01*
X347001Y168001D01*
X347001Y171358D02*
X351499Y171358D01*
X351499Y174715D02*
X347001Y174715D01*
X347001Y178072D02*
X351499Y178072D01*
X351499Y181429D02*
X347001Y181429D01*
X347001Y184786D02*
X351499Y184786D01*
X334301Y186199D02*
X334301Y168001D01*
X334301Y186199D02*
X338799Y186199D01*
X338799Y168001D01*
X334301Y168001D01*
X334301Y171358D02*
X338799Y171358D01*
X338799Y174715D02*
X334301Y174715D01*
X334301Y178072D02*
X338799Y178072D01*
X338799Y181429D02*
X334301Y181429D01*
X334301Y184786D02*
X338799Y184786D01*
X321601Y186199D02*
X321601Y168001D01*
X321601Y186199D02*
X326099Y186199D01*
X326099Y168001D01*
X321601Y168001D01*
X321601Y171358D02*
X326099Y171358D01*
X326099Y174715D02*
X321601Y174715D01*
X321601Y178072D02*
X326099Y178072D01*
X326099Y181429D02*
X321601Y181429D01*
X321601Y184786D02*
X326099Y184786D01*
X308901Y186199D02*
X308901Y168001D01*
X308901Y186199D02*
X313399Y186199D01*
X313399Y168001D01*
X308901Y168001D01*
X308901Y171358D02*
X313399Y171358D01*
X313399Y174715D02*
X308901Y174715D01*
X308901Y178072D02*
X313399Y178072D01*
X313399Y181429D02*
X308901Y181429D01*
X308901Y184786D02*
X313399Y184786D01*
X308901Y136799D02*
X308901Y118601D01*
X308901Y136799D02*
X313399Y136799D01*
X313399Y118601D01*
X308901Y118601D01*
X308901Y121958D02*
X313399Y121958D01*
X313399Y125315D02*
X308901Y125315D01*
X308901Y128672D02*
X313399Y128672D01*
X313399Y132029D02*
X308901Y132029D01*
X308901Y135386D02*
X313399Y135386D01*
X321601Y136799D02*
X321601Y118601D01*
X321601Y136799D02*
X326099Y136799D01*
X326099Y118601D01*
X321601Y118601D01*
X321601Y121958D02*
X326099Y121958D01*
X326099Y125315D02*
X321601Y125315D01*
X321601Y128672D02*
X326099Y128672D01*
X326099Y132029D02*
X321601Y132029D01*
X321601Y135386D02*
X326099Y135386D01*
X334301Y136799D02*
X334301Y118601D01*
X334301Y136799D02*
X338799Y136799D01*
X338799Y118601D01*
X334301Y118601D01*
X334301Y121958D02*
X338799Y121958D01*
X338799Y125315D02*
X334301Y125315D01*
X334301Y128672D02*
X338799Y128672D01*
X338799Y132029D02*
X334301Y132029D01*
X334301Y135386D02*
X338799Y135386D01*
X347001Y136799D02*
X347001Y118601D01*
X347001Y136799D02*
X351499Y136799D01*
X351499Y118601D01*
X347001Y118601D01*
X347001Y121958D02*
X351499Y121958D01*
X351499Y125315D02*
X347001Y125315D01*
X347001Y128672D02*
X351499Y128672D01*
X351499Y132029D02*
X347001Y132029D01*
X347001Y135386D02*
X351499Y135386D01*
X131101Y168001D02*
X131101Y186199D01*
X135599Y186199D01*
X135599Y168001D01*
X131101Y168001D01*
X131101Y171358D02*
X135599Y171358D01*
X135599Y174715D02*
X131101Y174715D01*
X131101Y178072D02*
X135599Y178072D01*
X135599Y181429D02*
X131101Y181429D01*
X131101Y184786D02*
X135599Y184786D01*
X118401Y186199D02*
X118401Y168001D01*
X118401Y186199D02*
X122899Y186199D01*
X122899Y168001D01*
X118401Y168001D01*
X118401Y171358D02*
X122899Y171358D01*
X122899Y174715D02*
X118401Y174715D01*
X118401Y178072D02*
X122899Y178072D01*
X122899Y181429D02*
X118401Y181429D01*
X118401Y184786D02*
X122899Y184786D01*
X105701Y186199D02*
X105701Y168001D01*
X105701Y186199D02*
X110199Y186199D01*
X110199Y168001D01*
X105701Y168001D01*
X105701Y171358D02*
X110199Y171358D01*
X110199Y174715D02*
X105701Y174715D01*
X105701Y178072D02*
X110199Y178072D01*
X110199Y181429D02*
X105701Y181429D01*
X105701Y184786D02*
X110199Y184786D01*
X93001Y186199D02*
X93001Y168001D01*
X93001Y186199D02*
X97499Y186199D01*
X97499Y168001D01*
X93001Y168001D01*
X93001Y171358D02*
X97499Y171358D01*
X97499Y174715D02*
X93001Y174715D01*
X93001Y178072D02*
X97499Y178072D01*
X97499Y181429D02*
X93001Y181429D01*
X93001Y184786D02*
X97499Y184786D01*
X93001Y136799D02*
X93001Y118601D01*
X93001Y136799D02*
X97499Y136799D01*
X97499Y118601D01*
X93001Y118601D01*
X93001Y121958D02*
X97499Y121958D01*
X97499Y125315D02*
X93001Y125315D01*
X93001Y128672D02*
X97499Y128672D01*
X97499Y132029D02*
X93001Y132029D01*
X93001Y135386D02*
X97499Y135386D01*
X105701Y136799D02*
X105701Y118601D01*
X105701Y136799D02*
X110199Y136799D01*
X110199Y118601D01*
X105701Y118601D01*
X105701Y121958D02*
X110199Y121958D01*
X110199Y125315D02*
X105701Y125315D01*
X105701Y128672D02*
X110199Y128672D01*
X110199Y132029D02*
X105701Y132029D01*
X105701Y135386D02*
X110199Y135386D01*
X118401Y136799D02*
X118401Y118601D01*
X118401Y136799D02*
X122899Y136799D01*
X122899Y118601D01*
X118401Y118601D01*
X118401Y121958D02*
X122899Y121958D01*
X122899Y125315D02*
X118401Y125315D01*
X118401Y128672D02*
X122899Y128672D01*
X122899Y132029D02*
X118401Y132029D01*
X118401Y135386D02*
X122899Y135386D01*
X131101Y136799D02*
X131101Y118601D01*
X131101Y136799D02*
X135599Y136799D01*
X135599Y118601D01*
X131101Y118601D01*
X131101Y121958D02*
X135599Y121958D01*
X135599Y125315D02*
X131101Y125315D01*
X131101Y128672D02*
X135599Y128672D01*
X135599Y132029D02*
X131101Y132029D01*
X131101Y135386D02*
X135599Y135386D01*
D17*
X962304Y58079D02*
X976946Y58079D01*
X962304Y58079D02*
X962304Y62521D01*
X976946Y62521D01*
X976946Y58079D01*
X976946Y61394D02*
X962304Y61394D01*
X962304Y48579D02*
X976946Y48579D01*
X962304Y48579D02*
X962304Y53021D01*
X976946Y53021D01*
X976946Y48579D01*
X976946Y51894D02*
X962304Y51894D01*
X962304Y39079D02*
X976946Y39079D01*
X962304Y39079D02*
X962304Y43521D01*
X976946Y43521D01*
X976946Y39079D01*
X976946Y42394D02*
X962304Y42394D01*
X985204Y43521D02*
X999846Y43521D01*
X999846Y39079D01*
X985204Y39079D01*
X985204Y43521D01*
X985204Y42394D02*
X999846Y42394D01*
X999846Y53021D02*
X985204Y53021D01*
X999846Y53021D02*
X999846Y48579D01*
X985204Y48579D01*
X985204Y53021D01*
X985204Y51894D02*
X999846Y51894D01*
X999846Y62521D02*
X985204Y62521D01*
X999846Y62521D02*
X999846Y58079D01*
X985204Y58079D01*
X985204Y62521D01*
X985204Y61394D02*
X999846Y61394D01*
D18*
X1079500Y533400D03*
X1104900Y533400D03*
X1079500Y508000D03*
X1104900Y508000D03*
X1079500Y482600D03*
X1104900Y482600D03*
X1079500Y457200D03*
X1104900Y457200D03*
X1079500Y431800D03*
X1104900Y431800D03*
X1079500Y406400D03*
X1104900Y406400D03*
X1079500Y381000D03*
X1104900Y381000D03*
X1079500Y355600D03*
X1104900Y355600D03*
X1079500Y330200D03*
X1104900Y330200D03*
X1079500Y304800D03*
X1104900Y304800D03*
X1079500Y279400D03*
X1104900Y279400D03*
X1079500Y254000D03*
X1104900Y254000D03*
D19*
X50800Y635000D03*
X50800Y50800D03*
X1092200Y50800D03*
X1092200Y635000D03*
D20*
X85725Y424425D03*
D21*
X85725Y352425D03*
D14*
X25725Y320425D03*
X25725Y456425D03*
D22*
X927100Y79375D03*
X908050Y60325D03*
X82550Y101600D03*
X161925Y22225D03*
X996950Y88900D03*
X1009650Y120650D03*
X1038225Y444500D03*
X917575Y387350D03*
X768350Y193675D03*
X946150Y574675D03*
X958850Y523875D03*
X742950Y523875D03*
X527050Y523875D03*
X311150Y523875D03*
X755650Y161925D03*
X539750Y161925D03*
X323850Y161925D03*
X107950Y161925D03*
X904875Y177800D03*
X1000125Y504825D03*
X958850Y587375D03*
X742950Y587375D03*
X527050Y587375D03*
X311150Y587375D03*
X755650Y98425D03*
X539750Y98425D03*
X323850Y98425D03*
X107950Y98425D03*
X968375Y69850D03*
X1009650Y587375D03*
X968375Y165100D03*
X552450Y193675D03*
X336550Y193675D03*
X120650Y193675D03*
X946150Y492125D03*
X730250Y492125D03*
X514350Y492125D03*
X298450Y492125D03*
X730250Y574675D03*
X514350Y574675D03*
X298450Y574675D03*
X768350Y111125D03*
X552450Y111125D03*
X336550Y111125D03*
X120650Y111125D03*
X1035050Y111125D03*
X1035050Y292100D03*
X1012825Y292100D03*
X1009650Y41275D03*
X1022350Y101600D03*
X184150Y660400D03*
M02*
