M48
;GenerationSoftware,Autodesk,EAGLE,9.6.2*%
;CreationDate,2021-05-11T08:23:15Z*%
FMAT,2
ICI,OFF
METRIC,TZ,000.000
T6C0.350
T5C1.000
T4C1.600
T3C3.600
T2C4.600
T1C7.000
%
G90
M71
T1
X42545Y7620
X20955Y7620
X64135Y7620
X85725Y7620
X20955Y60960
X42545Y60960
X64135Y60960
X85725Y60960
T2
X8573Y35243
X8573Y42443
T3
X109220Y63500
X109220Y5080
X5080Y5080
X5080Y63500
T4
X2573Y45642
X80225Y41910
X2573Y32042
X91225Y41910
X64135Y41910
X69635Y41910
X58635Y41910
X42545Y41910
X48045Y41910
X37045Y41910
X20955Y41910
X26455Y41910
X15455Y41910
X85725Y26670
X80225Y26670
X91225Y26670
X64135Y26670
X58635Y26670
X69635Y26670
X42545Y26670
X37045Y26670
X48045Y26670
X20955Y26670
X15455Y26670
X26455Y26670
X85725Y41910
T5
X107950Y53340
X107950Y50800
X110490Y50800
X107950Y48260
X110490Y48260
X107950Y45720
X110490Y45720
X107950Y43180
X110490Y43180
X107950Y40640
X110490Y40640
X107950Y38100
X110490Y38100
X107950Y35560
X110490Y35560
X107950Y33020
X110490Y33020
X107950Y30480
X110490Y30480
X107950Y27940
X110490Y27940
X107950Y25400
X110490Y25400
X110490Y53340
T6
X16192Y2223
X53975Y16192
X99695Y8890
X100965Y12065
X103822Y44450
X91757Y38735
X75565Y16192
X76835Y19368
X94615Y57467
X95885Y52387
X74295Y52387
X52705Y52387
X31115Y52387
X18415Y66040
X102235Y10160
X100965Y4128
X101282Y29210
X103505Y29210
X103505Y11112
X12065Y11112
X33655Y11112
X55245Y11112
X76835Y11112
X29845Y57467
X51435Y57467
X73025Y57467
X29845Y49212
X51435Y49212
X73025Y49212
X94615Y49212
X12065Y19368
X33655Y19368
X55245Y19368
X96837Y16510
X100965Y58737
X96837Y6985
X10795Y9843
X32385Y9843
X53975Y9843
X75565Y9843
X31115Y58737
X52705Y58737
X74295Y58737
X95885Y58737
X100012Y50482
X90487Y17780
X10795Y16192
X8255Y10160
X90805Y6032
X32385Y16192
X92710Y7937
M30